<?xml version="1.0" encoding="UTF-8" standalone="no"?>
<svg
   xmlns:dc="http://purl.org/dc/elements/1.1/"
   xmlns:cc="http://creativecommons.org/ns#"
   xmlns:rdf="http://www.w3.org/1999/02/22-rdf-syntax-ns#"
   xmlns:svg="http://www.w3.org/2000/svg"
   xmlns="http://www.w3.org/2000/svg"
   xmlns:xlink="http://www.w3.org/1999/xlink"
   xmlns:sodipodi="http://sodipodi.sourceforge.net/DTD/sodipodi-0.dtd"
   xmlns:inkscape="http://www.inkscape.org/namespaces/inkscape"
   width="338"
   height="349"
   viewBox="0 0 338 349"
   version="1.1"
   id="svg4247">
  <metadata
     id="metadata4251">
    <rdf:RDF>
      <cc:Work
         rdf:about="">
        <dc:format>image/svg+xml</dc:format>
        <dc:type
           rdf:resource="http://purl.org/dc/dcmitype/StillImage" />
        <dc:title>quade</dc:title>
      </cc:Work>
    </rdf:RDF>
  </metadata>
  <sodipodi:namedview
     pagecolor="#ffffff"
     bordercolor="#666666"
     borderopacity="1"
     objecttolerance="10"
     gridtolerance="10"
     guidetolerance="10"
     inkscape:pageopacity="0"
     inkscape:pageshadow="2"
     inkscape:window-width="1280"
     inkscape:window-height="750"
     id="namedview4249"
     showgrid="false"
     fit-margin-top="0"
     fit-margin-left="0"
     fit-margin-right="0"
     fit-margin-bottom="0"
     inkscape:zoom="0.938095"
     inkscape:cx="178.51053"
     inkscape:cy="168.25571"
     inkscape:window-x="0"
     inkscape:window-y="23"
     inkscape:window-maximized="0"
     inkscape:current-layer="svg4247" />
  <!-- Generator: Sketch 48.2 (47327) - http://www.bohemiancoding.com/sketch -->
  <title
     id="title4136">quade</title>
  <desc
     id="desc4138">Created with Sketch.</desc>
  <defs
     id="defs4141">
    <path
       d="m 463,360 c 0,24.30053 -19.69947,44 -44,44 -24.30053,0 -44,-19.69947 -44,-44 0,-2.76142 -2.23858,-5 -5,-5 -2.76142,0 -5,2.23858 -5,5 v 76 c 0,6.62742 -5.37258,12 -12,12 -6.62742,0 -12,-5.37258 -12,-12 v -76 c 0,-2.76142 -2.23858,-5 -5,-5 -2.76142,0 -5,2.23858 -5,5 v 107 c 0,6.62742 -5.37258,12 -12,12 -6.62742,0 -12,-5.37258 -12,-12 V 360 c 0,-2.76142 -2.23858,-5 -5,-5 -2.76142,0 -5,2.23858 -5,5 v 107 c 0,6.62742 -5.37258,12 -12,12 -6.62742,0 -12,-5.37258 -12,-12 V 360 c 0,-2.76142 -2.23858,-5 -5,-5 -2.76142,0 -5,2.23858 -5,5 v 76 c 0,6.62742 -5.37258,12 -12,12 -6.62742,0 -12,-5.37258 -12,-12 v -76 c 0,-2.76142 -2.23858,-5 -5,-5 -2.76142,0 -5,2.23858 -5,5 0,24.30053 -19.69947,44 -44,44 -24.30053,0 -44,-19.69947 -44,-44 v -12 c 0,-6.62742 5.37258,-12 12,-12 6.62742,0 12,5.37258 12,12 v 12 c 0,11.0457 8.9543,20 20,20 11.04569,0 20,-8.9543 20,-20 V 320.79768 281.9421 c -9.83619,-9.04679 -16,-22.02463 -16,-36.4421 0,-15.49058 7.11551,-29.31924 18.25635,-38.39582 C 216.81292,163.5761 255.60218,131 302,131 c 47.14978,0 86.44238,33.64057 95.18517,78.22907 C 406.91349,218.268 413,231.17321 413,245.5 c 0,13.41381 -5.33549,25.58144 -14,34.49642 V 320.79768 360 c 0,11.0457 8.9543,20 20,20 11.0457,0 20,-8.9543 20,-20 v -12 c 0,-6.62742 5.37258,-12 12,-12 6.62742,0 12,5.37258 12,12 z"
       id="path-1"
       inkscape:connector-curvature="0" />
  </defs>
  <g
     id="Page-1"
     style="fill:none;fill-rule:evenodd;stroke:none;stroke-width:1"
     transform="translate(-131,-130)"
     inkscape:export-xdpi="96"
     inkscape:export-ydpi="96">
    <g
       id="quade">
      <mask
         id="mask-2"
         fill="white">
        <use
           xlink:href="#path-1"
           id="use4143"
           x="0"
           y="0"
           width="100%"
           height="100%" />
      </mask>
      <use
         id="body"
         xlink:href="#path-1"
         style="fill:#53355a"
         x="0"
         y="0"
         width="100%"
         height="100%" />
      <path
         d="m 469,359 c 0,24.30053 -19.69947,44 -44,44 -21.91823,0 -40.09332,-16.02634 -43.44624,-37 H 371 v 69 c 0,6.62742 -5.37258,12 -12,12 -6.62742,0 -12,-5.37258 -12,-12 v -69 h -10 v 100 c 0,6.62742 -5.37258,12 -12,12 -6.62742,0 -12,-5.37258 -12,-12 V 366 h -10 v 100 c 0,6.62742 -5.37258,12 -12,12 -6.62742,0 -12,-5.37258 -12,-12 V 366 h -10 v 69 c 0,6.62742 -5.37258,12 -12,12 -6.62742,0 -12,-5.37258 -12,-12 v -69 h -10.55376 c -3.35292,20.97366 -21.52801,37 -43.44624,37 -24.30053,0 -44,-19.69947 -44,-44 v -12 c 0,-6.62742 5.37258,-12 12,-12 6.62742,0 12,5.37258 12,12 v 12 c 0,11.0457 8.9543,20 20,20 11.04569,0 20,-8.9543 20,-20 V 319.79768 279.68554 C 200.00647,270.60642 193,256.87143 193,241.5 c 0,-17.00757 8.57738,-32.01177 21.64232,-40.9228 C 226.14714,159.84733 263.58796,130 308,130 c 46.76182,0 85.79524,33.08925 94.96316,77.13067 C 413.40112,216.20599 420,229.58237 420,244.5 c 0,13.9225 -5.74784,26.50251 -15,35.49652 V 319.79768 359 c 0,11.0457 8.9543,20 20,20 11.0457,0 20,-8.9543 20,-20 v -12 c 0,-6.62742 5.37258,-12 12,-12 6.62742,0 12,5.37258 12,12 z"
         id="path4147"
         mask="url(#mask-2)"
         inkscape:connector-curvature="0"
         style="fill:#6d4576" />
      <path
         d="m 245,366 v 69 h -6 V 372.22066 C 236.95816,372.82532 234.92656,373 233.87198,373 c -2.59837,0 -9.52511,-18 0,-18 C 243.39709,355 245,360.06042 245,366 Z"
         id="Combined-Shape"
         mask="url(#mask-2)"
         inkscape:connector-curvature="0"
         style="fill:#53355a" />
      <path
         d="m 279,366 v 69 h -6 V 372.22066 C 270.95816,372.82532 268.92656,373 267.87198,373 c -2.59837,0 -9.52511,-18 0,-18 C 277.39709,355 279,360.06042 279,366 Z"
         id="path4150"
         mask="url(#mask-2)"
         inkscape:connector-curvature="0"
         style="fill:#53355a" />
      <path
         d="m 313,366 v 69 h -6 V 372.22066 C 304.95816,372.82532 302.92656,373 301.87198,373 c -2.59837,0 -9.52511,-18 0,-18 C 311.39709,355 313,360.06042 313,366 Z"
         id="path4152"
         mask="url(#mask-2)"
         inkscape:connector-curvature="0"
         style="fill:#53355a" />
      <path
         d="m 347,366 v 69 h -6 V 372.22066 C 338.95816,372.82532 336.92656,373 335.87198,373 c -2.59837,0 -9.52511,-18 0,-18 C 345.39709,355 347,360.06042 347,366 Z"
         id="path4154"
         mask="url(#mask-2)"
         inkscape:connector-curvature="0"
         style="fill:#53355a" />
      <path
         d="m 369.48534,373 c 2.54187,0 12.91749,-1.93517 12.07176,-7 -0.84573,-5.06483 -3.39553,-11 -12.07176,-11 -8.67622,0 -2.54186,18 0,18 z"
         id="path4156"
         mask="url(#mask-2)"
         inkscape:connector-curvature="0"
         style="fill:#53355a" />
      <g
         id="details"
         mask="url(#mask-2)">
        <g
           transform="translate(131,150)"
           id="g4224">
          <circle
             id="Oval-5"
             cx="196.5"
             cy="10.5"
             r="10.5"
             style="fill:#855f8e" />
          <circle
             id="circle4159"
             cx="217"
             cy="21"
             r="7"
             style="fill:#855f8e" />
          <g
             id="Group"
             transform="translate(200,214)"
             style="fill:none;stroke-width:1">
            <circle
               id="circle4161"
               cx="7"
               cy="7"
               r="7"
               style="fill:#7b537a" />
            <circle
               id="circle4163"
               cx="7"
               cy="27"
               r="7"
               style="fill:#7b537a" />
            <circle
               id="circle4165"
               cx="7"
               cy="47"
               r="7"
               style="fill:#7b537a" />
            <circle
               id="circle4167"
               cx="7"
               cy="67"
               r="7"
               style="fill:#7b537a" />
          </g>
          <g
             id="g4176"
             transform="translate(235,214)"
             style="fill:none;stroke-width:1">
            <circle
               id="circle4170"
               cx="7"
               cy="7"
               r="7"
               style="fill:#7b537a" />
            <circle
               id="circle4172"
               cx="16"
               cy="27"
               r="7"
               style="fill:#7b537a" />
            <circle
               id="circle4174"
               cx="33"
               cy="41"
               r="7"
               style="fill:#7b537a" />
          </g>
          <g
             id="g4186"
             transform="translate(0,194)"
             style="fill:none;stroke-width:1">
            <circle
               id="circle4178"
               cx="8"
               cy="27"
               r="7"
               style="fill:#7b537a" />
            <circle
               id="circle4180"
               cx="7"
               cy="7"
               r="7"
               style="fill:#7b537a" />
            <circle
               id="circle4182"
               cx="17"
               cy="47"
               r="7"
               style="fill:#7b537a" />
            <circle
               id="circle4184"
               cx="34"
               cy="61"
               r="7"
               style="fill:#7b537a" />
          </g>
          <g
             id="g4198"
             transform="translate(166,214)"
             style="fill:none;stroke-width:1">
            <circle
               id="circle4188"
               cx="7"
               cy="7"
               r="7"
               style="fill:#7b537a" />
            <circle
               id="circle4190"
               cx="7"
               cy="27"
               r="7"
               style="fill:#7b537a" />
            <circle
               id="circle4192"
               cx="7"
               cy="47"
               r="7"
               style="fill:#7b537a" />
            <circle
               id="circle4194"
               cx="7"
               cy="67"
               r="7"
               style="fill:#7b537a" />
            <circle
               id="circle4196"
               cx="7"
               cy="87"
               r="7"
               style="fill:#7b537a" />
          </g>
          <g
             id="g4210"
             transform="translate(132,214)"
             style="fill:none;stroke-width:1">
            <circle
               id="circle4200"
               cx="7"
               cy="7"
               r="7"
               style="fill:#7b537a" />
            <circle
               id="circle4202"
               cx="7"
               cy="27"
               r="7"
               style="fill:#7b537a" />
            <circle
               id="circle4204"
               cx="7"
               cy="47"
               r="7"
               style="fill:#7b537a" />
            <circle
               id="circle4206"
               cx="7"
               cy="67"
               r="7"
               style="fill:#7b537a" />
            <circle
               id="circle4208"
               cx="7"
               cy="87"
               r="7"
               style="fill:#7b537a" />
          </g>
          <g
             id="g4220"
             transform="translate(98,214)"
             style="fill:none;stroke-width:1">
            <circle
               id="circle4212"
               cx="7"
               cy="7"
               r="7"
               style="fill:#7b537a" />
            <circle
               id="circle4214"
               cx="7"
               cy="27"
               r="7"
               style="fill:#7b537a" />
            <circle
               id="circle4216"
               cx="7"
               cy="47"
               r="7"
               style="fill:#7b537a" />
            <circle
               id="circle4218"
               cx="7"
               cy="67"
               r="7"
               style="fill:#7b537a" />
          </g>
          <circle
             id="circle4222"
             cx="204"
             cy="28"
             r="5"
             style="fill:#855f8e" />
        </g>
      </g>
      <g
         id="eye"
         transform="translate(199,201)">
        <circle
           id="Oval-3"
           cx="44.5"
           cy="44.5"
           r="44.5"
           style="fill:#ffffff" />
        <path
           d="M 17.143967,10.143967 C 11.410534,17.574316 8,26.888871 8,37 8,61.300529 27.699471,81 52,81 62.111129,81 71.425684,77.589466 78.856033,71.856033 70.810048,82.283374 58.1894,89 44,89 19.699471,89 0,69.300529 0,45 0,30.8106 6.7166264,18.189951 17.143967,10.143967 Z"
           id="path4228"
           inkscape:connector-curvature="0"
           style="fill:#ededed" />
        <circle
           id="Oval-4"
           cx="58"
           cy="31"
           r="16"
           style="fill:#000000" />
        <circle
           id="circle4231"
           cx="66.5"
           cy="22.5"
           r="7.5"
           style="fill:#ffffff" />
      </g>
      <g
         id="g4242"
         transform="translate(313,201)">
        <circle
           id="circle4234"
           cx="44.5"
           cy="44.5"
           r="44.5"
           style="fill:#ffffff" />
        <path
           d="M 17.143967,10.143967 C 11.410534,17.574316 8,26.888871 8,37 8,61.300529 27.699471,81 52,81 62.111129,81 71.425684,77.589466 78.856033,71.856033 70.810048,82.283374 58.1894,89 44,89 19.699471,89 0,69.300529 0,45 0,30.8106 6.7166264,18.189951 17.143967,10.143967 Z"
           id="path4236"
           inkscape:connector-curvature="0"
           style="fill:#ededed" />
        <circle
           id="circle4238"
           cx="58"
           cy="31"
           r="16"
           style="fill:#000000" />
        <circle
           id="circle4240"
           cx="66.5"
           cy="22.5"
           r="7.5"
           style="fill:#ffffff" />
      </g>
      <path
         d="m 282,313 c 13.33333,8 26.66667,8 40,0"
         id="mouth"
         inkscape:connector-curvature="0"
         style="stroke:#a984b2;stroke-width:6;stroke-linecap:round" />
    </g>
  </g>
</svg>
